<svg width="17px" height="17px" viewBox="0 0 17 17" version="1.1" xmlns="http://www.w3.org/2000/svg" xmlns:xlink="http://www.w3.org/1999/xlink">
    <!-- Generator: Sketch 49 (51002) - http://www.bohemiancoding.com/sketch -->
    <desc>Created with Sketch.</desc>
    <defs></defs>
    <g id="Page-1" stroke="none" stroke-width="1" fill="none" fill-rule="evenodd">
        <g id="1.0-B-Copy-68" transform="translate(-215.000000, -9.000000)" fill="#4A4A4A">
            <g id="Group-30" transform="translate(0.000000, -1.000000)">
                <g id="Group-29" transform="translate(201.000000, 2.000000)">
                    <path d="M17.4,15.3666667 C18.7222222,18.0111111 20.9888889,20.1833333 23.6333333,21.6 L25.7111111,19.5222222 C25.9944444,19.2388889 26.3722222,19.1444444 26.6555556,19.3333333 C27.6944444,19.7111111 28.8277778,19.9 30.0555556,19.9 C30.6222222,19.9 31,20.2777778 31,20.8444444 L31,24.0555556 C31,24.6222222 30.6222222,25 30.0555556,25 C21.1777778,25 14,17.8222222 14,8.94444444 C14,8.37777778 14.3777778,8 14.9444444,8 L18.25,8 C18.8166667,8 19.1944444,8.37777778 19.1944444,8.94444444 C19.1944444,10.0777778 19.3833333,11.2111111 19.7611111,12.3444444 C19.8555556,12.6277778 19.7611111,13.0055556 19.5722222,13.2888889 L17.4,15.3666667 L17.4,15.3666667 Z" id="Path"></path>
                </g>
            </g>
        </g>
    </g>
</svg>