
<svg width="21px" height="21px" viewBox="0 0 21 21" version="1.1" xmlns="http://www.w3.org/2000/svg" xmlns:xlink="http://www.w3.org/1999/xlink">
    <!-- Generator: Sketch 49 (51002) - http://www.bohemiancoding.com/sketch -->
    <desc>Created with Sketch.</desc>
    <defs></defs>
    <g id="Page-1" stroke="none" stroke-width="1" fill="none" fill-rule="evenodd">
        <g id="1.0.0-Default-state" transform="translate(-662.000000, -269.000000)" fill="#4A4A4A">
            <g id="Group-32" transform="translate(403.000000, 257.000000)">
                <g id="Group-34">
                    <g id="Group-28" transform="translate(246.000000, 2.000000)">
                        <g id="Group-13" transform="translate(13.000000, 10.000000)">
                            <g id="Group-22-Copy-7">
                                <g id="Group-11">
                                    <g id="baseline-chat-24px-copy" fill-rule="nonzero">
                                        <path d="M18.9,0 L2.1,0 C0.945,0 0.0105,0.945 0.0105,2.1 L0,21 L4.2,16.8 L18.9,16.8 C20.055,16.8 21,15.855 21,14.7 L21,2.1 C21,0.945 20.055,0 18.9,0 Z M4.2,7.35 L16.8,7.35 L16.8,9.45 L4.2,9.45 L4.2,7.35 Z M12.6,12.6 L4.2,12.6 L4.2,10.5 L12.6,10.5 L12.6,12.6 Z M16.8,6.3 L4.2,6.3 L4.2,4.2 L16.8,4.2 L16.8,6.3 Z" id="Shape"></path>
                                    </g>
                                    <rect id="Rectangle" x="2.625" y="2.625" width="15.75" height="11.8125"></rect>
                                </g>
                            </g>
                        </g>
                    </g>
                </g>
            </g>
        </g>
    </g>
</svg>