
<svg width="27px" height="24px" viewBox="0 0 27 24" version="1.1" xmlns="http://www.w3.org/2000/svg" xmlns:xlink="http://www.w3.org/1999/xlink">
    <!-- Generator: Sketch 49 (51002) - http://www.bohemiancoding.com/sketch -->
    <desc>Created with Sketch.</desc>
    <defs></defs>
    <g id="Page-1" stroke="none" stroke-width="1" fill="none" fill-rule="evenodd">
        <g id="1.0.0-Default-state" transform="translate(-774.000000, -265.000000)">
            <g id="Group-31" transform="translate(769.000000, 257.000000)">
                <g id="Group-6">
                    <g id="Group-5">
                        <g id="statusbar-0[1],-0[3]">
                            <g id="Group-90-Copy-8">
                                <g id="Group-24-Copy-5">
                                    <g id="Group-23">
                                        <g id="Group-27" transform="translate(5.000000, 8.000000)">
                                            <g id="Group-25">
                                                <g id="Page-1-Copy-3">
                                                    <path d="M22.6147912,7.63153338 L22.6231228,7.57673566 C22.3642872,3.76303571 18.8733388,3.1026955 17.3125489,5.2082564 L17.3125489,5.20880991 C16.8993006,4.04255943 16.2722074,2.96985254 15.4207159,2.11855058 C13.5788727,0.277015055 10.7788932,-0.703808794 7.7150792,0.589196009 C5.32890352,1.59603494 3.65924707,4.41784079 3.65924707,6.86879339 C3.65924707,7.15717331 3.67646575,7.44112514 3.70979222,7.71954184 L3.70979222,7.7178813 C1.9651512,8.16290522 0,9.48746022 0,12.4797479 C0,12.5323316 0.000555441267,12.5849152 0.0016663238,12.6363919 C0.0649866283,15.2506306 2.3217445,17.4076682 4.94564904,17.4104357 L10.355647,17.4104357 L10.355647,24 L17.4597408,17.4104357 L22.001584,17.4104357 C22.5809093,17.4109892 23.1574573,17.3202132 23.7056778,17.1336795 C25.0409587,16.6792459 27,15.5041392 27,12.5212613 C27,9.02029582 24.2022423,7.90330794 22.6147912,7.63153338 Z" id="Stroke-3" fill="#FFFFFF"></path>
                                                    <path d="M10.2413793,9.23076923 L7.44827586,11.0769231" id="Stroke-11" stroke="#575757" stroke-linecap="round"></path>
                                                    <path d="M13.9655172,12 L12.1034483,9.23076923" id="Stroke-13" stroke="#575757" stroke-linecap="round"></path>
                                                    <path d="M17.6896552,11.0769231 L15.362069,12.4615385" id="Stroke-15" stroke="#575757" stroke-linecap="round"></path>
                                                    <path d="M19.4123007,9.26931244 C18.6626841,9.09089679 17.9084827,9.54886816 17.7285289,10.2920773 C17.5485751,11.0358546 18.0104948,11.7830411 18.7606844,11.9614568 C19.510301,12.1398724 20.2639293,11.6819011 20.4438831,10.9386919 C20.6238369,10.1949146 20.1619173,9.44772808 19.4123007,9.26931244 Z" id="Stroke-17" stroke="#575757" stroke-linecap="round"></path>
                                                    <path d="M14.7571283,12.0385432 C14.0075117,11.8601276 13.2533103,12.3180989 13.0733565,13.0613081 C12.8934026,13.8050854 13.3553223,14.5522719 14.105512,14.7306876 C14.8551286,14.9091032 15.6087569,14.4511318 15.7887107,13.7079227 C15.9686645,12.9641454 15.5067448,12.2169589 14.7571283,12.0385432 Z" id="Stroke-19" stroke="#575757" stroke-linecap="round"></path>
                                                    <path d="M11.9640248,6.50008167 C11.2144082,6.32166602 10.4602069,6.77963739 10.280253,7.52284651 C10.1002992,8.26662384 10.5622189,9.01381038 11.3124086,9.19222602 C12.0620251,9.37064167 12.8156534,8.9126703 12.9956073,8.16946118 C13.1755611,7.42568385 12.7136414,6.67849731 11.9640248,6.50008167 Z" id="Stroke-21" stroke="#575757" stroke-linecap="round"></path>
                                                    <path d="M6.37781792,10.1923894 C5.62820134,10.0139737 4.87399996,10.4719451 4.69404613,11.2151542 C4.5140923,11.9589315 4.976012,12.7061181 5.72620167,12.8845337 C6.47581825,13.0629494 7.22944653,12.604978 7.40940036,11.8617689 C7.58935419,11.1179915 7.12743449,10.370805 6.37781792,10.1923894 Z" id="Stroke-23" stroke="#575757" stroke-linecap="round"></path>
                                                </g>
                                            </g>
                                        </g>
                                    </g>
                                </g>
                            </g>
                        </g>
                    </g>
                </g>
            </g>
        </g>
    </g>
</svg>