
<svg width="17px" height="17px" viewBox="0 0 17 17" version="1.1" xmlns="http://www.w3.org/2000/svg" xmlns:xlink="http://www.w3.org/1999/xlink">
    <!-- Generator: Sketch 49 (51002) - http://www.bohemiancoding.com/sketch -->
    <desc>Created with Sketch.</desc>
    <defs></defs>
    <g id="Page-1" stroke="none" stroke-width="1" fill="none" fill-rule="evenodd">
        <g id="1.0-B-Copy-64" transform="translate(-215.000000, -12.000000)" fill="#FFFFFF">
            <g id="Group-6" transform="translate(0.000000, 1.000000)">
                <g id="Group-5">
                    <g id="statusbar-0[1],-0[3]">
                        <g id="Group" transform="translate(199.000000, 5.000000)">
                            <g id="Group-21-Copy-7" transform="translate(16.000000, 6.000000)">
                                <path d="M3.4,7.36666667 C4.72222222,10.0111111 6.98888889,12.1833333 9.63333333,13.6 L11.7111111,11.5222222 C11.9944444,11.2388889 12.3722222,11.1444444 12.6555556,11.3333333 C13.6944444,11.7111111 14.8277778,11.9 16.0555556,11.9 C16.6222222,11.9 17,12.2777778 17,12.8444444 L17,16.0555556 C17,16.6222222 16.6222222,17 16.0555556,17 C7.17777778,17 0,9.82222222 0,0.944444444 C0,0.377777778 0.377777778,0 0.944444444,0 L4.25,0 C4.81666667,0 5.19444444,0.377777778 5.19444444,0.944444444 C5.19444444,2.07777778 5.38333333,3.21111111 5.76111111,4.34444444 C5.85555556,4.62777778 5.76111111,5.00555556 5.57222222,5.28888889 L3.4,7.36666667 L3.4,7.36666667 Z" id="Shape-Copy"></path>
                            </g>
                        </g>
                    </g>
                </g>
            </g>
        </g>
    </g>
</svg>
