<?xml version="1.0" encoding="utf-8"?>
<!-- Generator: Adobe Illustrator 19.0.1, SVG Export Plug-In . SVG Version: 6.00 Build 0)  -->
<svg version="1.1" id="Layer_1" xmlns="http://www.w3.org/2000/svg" xmlns:xlink="http://www.w3.org/1999/xlink" x="0px" y="0px"
	 viewBox="0 0 46 40" style="enable-background:new 0 0 46 40;" xml:space="preserve">
<style type="text/css">
	.st0{fill:#04ABBA;}
	.st1{fill:none;stroke:#26303C;stroke-width:2;stroke-linecap:round;}
</style>
<g id="Icon">
	<g id="Artboard-2" transform="translate(-1206.000000, -294.000000)">
		<g id="Page-1-Copy-3" transform="translate(1206.000000, 294.000000)">
			<path id="Stroke-3" class="st0" d="M38.5,12.7L38.5,12.7c-0.4-6.4-6.4-7.5-9-4v0c-0.7-1.9-1.8-3.7-3.2-5.2
				C23.1,0.5,18.3-1.2,13.1,1C9,2.7,6.2,7.4,6.2,11.4c0,0.5,0,1,0.1,1.4v0c-3,0.7-6.3,2.9-6.3,7.9c0,0.1,0,0.2,0,0.3
				c0.1,4.4,4,8,8.4,8h9.2v11l12.1-11h7.7c1,0,2-0.2,2.9-0.5c2.3-0.8,5.6-2.7,5.6-7.7C46,15,41.2,13.2,38.5,12.7z"/>
			<path id="Stroke-11" class="st1" d="M17.7,14.9l-5,3.4"/>
			<path id="Stroke-13" class="st1" d="M23.5,20.9l-2.8-5.3"/>
			<path id="Stroke-15" class="st1" d="M31.4,18.1l-5,3.4"/>
			<path id="Stroke-17" class="st1" d="M33.8,14.7c-1.2-0.3-2.5,0.5-2.8,1.7c-0.3,1.2,0.5,2.4,1.7,2.7c1.2,0.3,2.5-0.5,2.8-1.7
				C35.8,16.2,35,14.9,33.8,14.7z"/>
			<path id="Stroke-19" class="st1" d="M25.1,20.7c-1.2-0.3-2.5,0.5-2.8,1.7c-0.3,1.2,0.5,2.4,1.7,2.7c1.2,0.3,2.5-0.5,2.8-1.7
				C27.1,22.2,26.3,21,25.1,20.7z"/>
			<path id="Stroke-21" class="st1" d="M20.1,11.4c-1.2-0.3-2.5,0.5-2.8,1.7c-0.3,1.2,0.5,2.4,1.7,2.7c1.2,0.3,2.5-0.5,2.8-1.7
				C22.1,13,21.3,11.7,20.1,11.4z"/>
			<path id="Stroke-23" class="st1" d="M11.3,17.5c-1.2-0.3-2.5,0.5-2.8,1.7c-0.3,1.2,0.5,2.4,1.7,2.7c1.2,0.3,2.5-0.5,2.8-1.7
				C13.3,19,12.6,17.8,11.3,17.5z"/>
		</g>
	</g>
</g>
</svg>
