<?xml version="1.0" encoding="utf-8"?>
<!-- Generator: Adobe Illustrator 23.0.1, SVG Export Plug-In . SVG Version: 6.00 Build 0)  -->
<svg version="1.1" id="Layer_1" xmlns="http://www.w3.org/2000/svg" xmlns:xlink="http://www.w3.org/1999/xlink" x="0px" y="0px"
	 viewBox="0 0 24 24" style="enable-background:new 0 0 24 24;" xml:space="preserve">
<style type="text/css">
	.st0{clip-path:url(#SVGID_2_);}
	.st1{clip-path:url(#SVGID_4_);fill:#4A4A4A;}
</style>
<g>
	<defs>
		<path id="SVGID_1_" d="M11.6,14.9l-4.5-4.5c-0.1-0.1-0.2-0.2-0.2-0.4s0.1-0.3,0.2-0.4l0.5-0.5C7.7,9,7.8,8.9,8,8.9
			c0.2,0,0.3,0,0.4,0.2l3.6,3.6L15.6,9c0.1-0.1,0.2-0.2,0.4-0.2c0.2,0,0.3,0.1,0.4,0.2l0.5,0.5c0.1,0.1,0.2,0.2,0.2,0.4
			s-0.1,0.3-0.2,0.4l-4.5,4.5c-0.1,0.1-0.2,0.2-0.4,0.2S11.7,15,11.6,14.9z"/>
	</defs>
	<clipPath id="SVGID_2_">
		<use xlink:href="#SVGID_1_"  style="overflow:visible;"/>
	</clipPath>
	<g class="st0">
		<defs>
			<rect id="SVGID_3_" x="-577.1" y="-210.1" width="1500" height="800"/>
		</defs>
		<clipPath id="SVGID_4_">
			<use xlink:href="#SVGID_3_"  style="overflow:visible;"/>
		</clipPath>
		<rect x="1.9" y="3.9" class="st1" width="20.2" height="16.2"/>
	</g>
</g>
</svg>
