<?xml version="1.0" encoding="utf-8"?>
<!-- Generator: Adobe Illustrator 23.0.1, SVG Export Plug-In . SVG Version: 6.00 Build 0)  -->
<svg version="1.1" id="Layer_1" xmlns="http://www.w3.org/2000/svg" xmlns:xlink="http://www.w3.org/1999/xlink" x="0px" y="0px"
	 viewBox="0 0 24 24" style="enable-background:new 0 0 24 24;" xml:space="preserve">
<style type="text/css">
	.st0{clip-path:url(#SVGID_2_);}
	.st1{clip-path:url(#SVGID_4_);fill:#FFFFFF;}
	.st2{clip-path:url(#SVGID_6_);}
	.st3{clip-path:url(#SVGID_8_);fill:#FFFFFF;}
</style>
<g>
	<g>
		<defs>
			<path id="SVGID_1_" d="M7.6,8.5l1.1-1.1L6,4.7L4.8,5.8C4.9,5.8,7.6,8.5,7.6,8.5z M12.8,2.5h-1.6v3.9h1.6V2.5z M19.2,5.8l-1.1-1.1
				l-2.8,2.8l1.1,1.1C16.4,8.5,19.1,5.8,19.2,5.8z"/>
		</defs>
		<clipPath id="SVGID_2_">
			<use xlink:href="#SVGID_1_"  style="overflow:visible;"/>
		</clipPath>
		<g class="st0">
			<defs>
				<rect id="SVGID_3_" x="-2623.4" y="-1006.5" width="5003" height="1184"/>
			</defs>
			<clipPath id="SVGID_4_">
				<use xlink:href="#SVGID_3_"  style="overflow:visible;"/>
			</clipPath>
			<rect x="-0.2" y="-2.5" class="st1" width="24.4" height="16.1"/>
		</g>
	</g>
	<g>
		<defs>
			<path id="SVGID_5_" d="M15.7,10.5H8.5c-0.5,0-0.9,0.4-0.9,0.9v8.1l1.8-1.8h6.3c0.5,0,0.9-0.4,0.9-0.9v-5.4
				C16.6,10.9,16.2,10.5,15.7,10.5z"/>
		</defs>
		<clipPath id="SVGID_6_">
			<use xlink:href="#SVGID_5_"  style="overflow:visible;"/>
		</clipPath>
		<g class="st2">
			<defs>
				<rect id="SVGID_7_" x="-2623.4" y="-1006.5" width="5003" height="1184"/>
			</defs>
			<clipPath id="SVGID_8_">
				<use xlink:href="#SVGID_7_"  style="overflow:visible;"/>
			</clipPath>
			<rect x="2.6" y="5.5" class="st3" width="19" height="19"/>
		</g>
	</g>
</g>
</svg>
