<?xml version="1.0" encoding="utf-8"?>
<!-- Generator: Adobe Illustrator 23.0.1, SVG Export Plug-In . SVG Version: 6.00 Build 0)  -->
<svg version="1.1" id="Layer_1" xmlns="http://www.w3.org/2000/svg" xmlns:xlink="http://www.w3.org/1999/xlink" x="0px" y="0px"
	 viewBox="0 0 24 24" style="enable-background:new 0 0 24 24;" xml:space="preserve">
<style type="text/css">
	.st0{clip-path:url(#SVGID_2_);}
	.st1{clip-path:url(#SVGID_4_);fill:#4A4A4A;}
</style>
<g>
	<defs>
		<path id="SVGID_1_" d="M6.8,10.8c1.3,2.6,3.6,4.8,6.2,6.2l2.1-2.1c0.3-0.3,0.7-0.4,0.9-0.2c1,0.4,2.2,0.6,3.4,0.6
			c0.6,0,0.9,0.4,0.9,0.9v3.2c0,0.6-0.4,0.9-0.9,0.9c-8.9,0-16.1-7.2-16.1-16.1c0-0.6,0.4-0.9,0.9-0.9h3.3c0.6,0,0.9,0.4,0.9,0.9
			c0,1.1,0.2,2.3,0.6,3.4C9.3,8,9.2,8.4,9,8.7L6.8,10.8z"/>
	</defs>
	<clipPath id="SVGID_2_">
		<use xlink:href="#SVGID_1_"  style="overflow:visible;"/>
	</clipPath>
	<g class="st0">
		<defs>
			<rect id="SVGID_3_" x="-632.6" y="-191.6" width="1500" height="800"/>
		</defs>
		<clipPath id="SVGID_4_">
			<use xlink:href="#SVGID_3_"  style="overflow:visible;"/>
		</clipPath>
		<rect x="-1.6" y="-1.6" class="st1" width="27" height="27"/>
	</g>
</g>
</svg>
