<?xml version="1.0" encoding="utf-8"?>
<!-- Generator: Adobe Illustrator 23.0.1, SVG Export Plug-In . SVG Version: 6.00 Build 0)  -->
<svg version="1.1" id="Layer_1" xmlns="http://www.w3.org/2000/svg" xmlns:xlink="http://www.w3.org/1999/xlink" x="0px" y="0px"
	 viewBox="0 0 24 24" style="enable-background:new 0 0 24 24;" xml:space="preserve">
<style type="text/css">
	.st0{clip-path:url(#SVGID_2_);}
	.st1{clip-path:url(#SVGID_4_);fill:#FFFFFF;}
</style>
<g>
	<defs>
		<path id="SVGID_1_" d="M12,3.5c-0.9,0-1.6,0.7-1.6,1.6s0.7,1.6,1.6,1.6s1.6-0.7,1.6-1.6S12.9,3.5,12,3.5z M12,8.4
			c-0.9,0-1.6,0.7-1.6,1.6c0,0.9,0.7,1.6,1.6,1.6s1.6-0.7,1.6-1.6C13.6,9.1,12.9,8.4,12,8.4z M16.9,8.4c-0.9,0-1.6,0.7-1.6,1.6
			c0,0.9,0.7,1.6,1.6,1.6c0.9,0,1.6-0.7,1.6-1.6C18.5,9.1,17.8,8.4,16.9,8.4z M16.9,13.3c-0.9,0-1.6,0.7-1.6,1.6
			c0,0.9,0.7,1.6,1.6,1.6c0.9,0,1.6-0.7,1.6-1.6C18.5,14,17.8,13.3,16.9,13.3z M12,13.3c-0.9,0-1.6,0.7-1.6,1.6
			c0,0.9,0.7,1.6,1.6,1.6s1.6-0.7,1.6-1.6C13.6,14,12.9,13.3,12,13.3z M16.9,6.7c0.9,0,1.6-0.7,1.6-1.6s-0.7-1.6-1.6-1.6
			c-0.9,0-1.6,0.7-1.6,1.6S16,6.7,16.9,6.7z M7.1,13.3c-0.9,0-1.6,0.7-1.6,1.6c0,0.9,0.7,1.6,1.6,1.6s1.6-0.7,1.6-1.6
			C8.7,14,8,13.3,7.1,13.3z M7.1,8.4c-0.9,0-1.6,0.7-1.6,1.6c0,0.9,0.7,1.6,1.6,1.6s1.6-0.7,1.6-1.6C8.7,9.1,8,8.4,7.1,8.4z
			 M7.1,3.5c-0.9,0-1.6,0.7-1.6,1.6s0.7,1.6,1.6,1.6S8.7,6,8.7,5.1S8,3.5,7.1,3.5z M12,18.2c-0.9,0-1.6,0.7-1.6,1.6
			c0,0.9,0.7,1.6,1.6,1.6s1.6-0.7,1.6-1.6C13.6,18.9,12.9,18.2,12,18.2z"/>
	</defs>
	<clipPath id="SVGID_2_">
		<use xlink:href="#SVGID_1_"  style="overflow:visible;"/>
	</clipPath>
	<g class="st0">
		<defs>
			<rect id="SVGID_3_" x="-440.5" y="-1007.5" width="5003" height="1184"/>
		</defs>
		<clipPath id="SVGID_4_">
			<use xlink:href="#SVGID_3_"  style="overflow:visible;"/>
		</clipPath>
		<rect x="0.5" y="-1.5" class="st1" width="23" height="28"/>
	</g>
</g>
</svg>
