<?xml version="1.0" encoding="utf-8"?>
<!-- Generator: Adobe Illustrator 23.0.1, SVG Export Plug-In . SVG Version: 6.00 Build 0)  -->
<svg version="1.1" id="Layer_1" xmlns="http://www.w3.org/2000/svg" xmlns:xlink="http://www.w3.org/1999/xlink" x="0px" y="0px"
	 viewBox="0 0 24 24" style="enable-background:new 0 0 24 24;" xml:space="preserve">
<style type="text/css">
	.st0{clip-path:url(#SVGID_2_);fill:#FFFFFF;}
</style>
<g>
	<defs>
		<path id="SVGID_1_" d="M15.5,15.1h-7V14c0-1.2,2.3-1.8,3.5-1.8s3.5,0.6,3.5,1.8V15.1z M12,7.7c0.9,0,1.6,0.7,1.6,1.6
			c0,0.9-0.7,1.6-1.6,1.6s-1.6-0.7-1.6-1.6C10.4,8.4,11.1,7.7,12,7.7z M17.6,5.7H6.4C5.6,5.7,5,6.3,5,7.1v8.6c0,0.8,0.6,1.4,1.4,1.4
			h11.2c0.8,0,1.4-0.6,1.4-1.4V7.1C19,6.3,18.4,5.7,17.6,5.7z M6.4,20.1h11.2v-1.4H6.4V20.1z M17.6,2.8H6.4v1.4h11.2V2.8z"/>
	</defs>
	<clipPath id="SVGID_2_">
		<use xlink:href="#SVGID_1_"  style="overflow:visible;"/>
	</clipPath>
	<rect x="0" y="-2.2" class="st0" width="24" height="27.3"/>
</g>
</svg>
