<?xml version="1.0" encoding="utf-8"?>
<!-- Generator: Adobe Illustrator 23.0.1, SVG Export Plug-In . SVG Version: 6.00 Build 0)  -->
<svg version="1.1" id="Layer_1" xmlns="http://www.w3.org/2000/svg" xmlns:xlink="http://www.w3.org/1999/xlink" x="0px" y="0px"
	 viewBox="0 0 24 24" style="enable-background:new 0 0 24 24;" xml:space="preserve">
<style type="text/css">
	.st0{clip-path:url(#SVGID_2_);}
	.st1{clip-path:url(#SVGID_4_);fill:#444444;}
</style>
<g>
	<defs>
		<path id="SVGID_1_" d="M15.5,15.6h-7v-1.1c0-1.2,2.3-1.8,3.5-1.8s3.5,0.6,3.5,1.8V15.6z M12,8.2c0.9,0,1.6,0.7,1.6,1.6
			c0,0.9-0.7,1.6-1.6,1.6s-1.6-0.7-1.6-1.6C10.4,8.9,11.1,8.2,12,8.2z M17.6,6.2H6.4C5.6,6.2,5,6.9,5,7.7v8.6c0,0.8,0.6,1.4,1.4,1.4
			h11.2c0.8,0,1.4-0.6,1.4-1.4V7.7C19,6.9,18.4,6.2,17.6,6.2z M6.4,20.6h11.2v-1.4H6.4V20.6z M17.6,3.4H6.4v1.4h11.2V3.4z"/>
	</defs>
	<clipPath id="SVGID_2_">
		<use xlink:href="#SVGID_1_"  style="overflow:visible;"/>
	</clipPath>
	<g class="st0">
		<defs>
			<rect id="SVGID_3_" x="-48" y="-410.6" width="320" height="460"/>
		</defs>
		<clipPath id="SVGID_4_">
			<use xlink:href="#SVGID_3_"  style="overflow:visible;"/>
		</clipPath>
		<rect y="-1.6" class="st1" width="24" height="27.3"/>
	</g>
</g>
</svg>
