<?xml version="1.0" encoding="utf-8"?>
<!-- Generator: Adobe Illustrator 23.0.1, SVG Export Plug-In . SVG Version: 6.00 Build 0)  -->
<svg version="1.1" id="Layer_1" xmlns="http://www.w3.org/2000/svg" xmlns:xlink="http://www.w3.org/1999/xlink" x="0px" y="0px"
	 viewBox="0 0 24 24" style="enable-background:new 0 0 24 24;" xml:space="preserve">
<style type="text/css">
	.st0{clip-path:url(#SVGID_2_);fill:#4A4A4A;}
	.st1{clip-path:url(#SVGID_4_);fill:#4A4A4A;}
	.st2{fill:none;stroke:#4A4A4A;stroke-linecap:square;stroke-miterlimit:10;}
</style>
<g>
	<g>
		<defs>
			<path id="SVGID_1_" d="M10.9,10.4H5.8l-0.7,0.8V5.9h5.9V10.4z M10.9,5.1H5.1c-0.4,0-0.7,0.3-0.7,0.8v6.8l1.5-1.5h5.2
				c0.4,0,0.7-0.3,0.7-0.8V5.9C11.7,5.5,11.4,5.1,10.9,5.1z"/>
		</defs>
		<clipPath id="SVGID_2_">
			<use xlink:href="#SVGID_1_"  style="overflow:visible;"/>
		</clipPath>
		<rect x="-0.7" y="0.1" class="st0" width="17.4" height="17.5"/>
	</g>
	<g>
		<defs>
			<path id="SVGID_3_" d="M13.1,17.4h5.2l0.7,0.8v-5.3h-5.9V17.4z M13.1,12.1h5.9c0.4,0,0.7,0.3,0.7,0.8v6.8l-1.5-1.5h-5.2
				c-0.4,0-0.7-0.3-0.7-0.8v-4.5C12.3,12.5,12.6,12.1,13.1,12.1z"/>
		</defs>
		<clipPath id="SVGID_4_">
			<use xlink:href="#SVGID_3_"  style="overflow:visible;"/>
		</clipPath>
		<rect x="7.3" y="7.1" class="st1" width="17.4" height="17.5"/>
	</g>
	<line class="st2" x1="16.2" y1="7.3" x2="9.4" y2="14"/>
</g>
</svg>
