<?xml version="1.0" encoding="utf-8"?>
<!-- Generator: Adobe Illustrator 23.0.1, SVG Export Plug-In . SVG Version: 6.00 Build 0)  -->
<svg version="1.1" id="Layer_1" xmlns="http://www.w3.org/2000/svg" xmlns:xlink="http://www.w3.org/1999/xlink" x="0px" y="0px"
	 viewBox="0 0 32 32" style="enable-background:new 0 0 32 32;" xml:space="preserve">
<style type="text/css">
	.st0{clip-path:url(#SVGID_2_);fill:#575757;}
	.st1{fill:none;stroke:#FFFFFF;stroke-linecap:round;stroke-miterlimit:10;}
</style>
<g>
	<g>
		<defs>
			<path id="SVGID_1_" d="M25.1,11.4c-0.3-3.9-3.7-4.5-5.3-2.4c-0.4-1.2-1-2.2-1.9-3.1c-1.8-1.8-4.6-2.8-7.7-1.5
				c-2.4,1-4.1,3.8-4.1,6.3c0,0.3,0,0.6,0.1,0.9c-1.7,0.4-3.7,1.8-3.7,4.8c0,0.1,0,0.1,0,0.2c0.1,2.6,2.3,4.8,4.9,4.8h5.4v6.6
				l7.1-6.6h4.5c0.6,0,1.2-0.1,1.7-0.3c1.3-0.5,3.3-1.6,3.3-4.6C29.5,12.8,26.7,11.7,25.1,11.4z"/>
		</defs>
		<clipPath id="SVGID_2_">
			<use xlink:href="#SVGID_1_"  style="overflow:visible;"/>
		</clipPath>
		<rect x="-2.5" y="-1.2" class="st0" width="37" height="34"/>
	</g>
	<line class="st1" x1="12.7" y1="13" x2="9.9" y2="14.8"/>
	<line class="st1" x1="16.5" y1="15.8" x2="14.6" y2="13"/>
	<line class="st1" x1="20.2" y1="14.8" x2="17.9" y2="16.2"/>
	<path class="st1" d="M21.9,13c-0.7-0.2-1.5,0.3-1.7,1c-0.2,0.7,0.3,1.5,1,1.7c0.7,0.2,1.5-0.3,1.7-1C23.1,14,22.7,13.2,21.9,13z"/>
	<path class="st1" d="M17.3,15.8c-0.7-0.2-1.5,0.3-1.7,1c-0.2,0.7,0.3,1.5,1,1.7c0.7,0.2,1.5-0.3,1.7-1C18.5,16.7,18,16,17.3,15.8z"
		/>
	<path class="st1" d="M14.5,10.3c-0.7-0.2-1.5,0.3-1.7,1c-0.2,0.7,0.3,1.5,1,1.7c0.7,0.2,1.5-0.3,1.7-1
		C15.7,11.2,15.2,10.4,14.5,10.3z"/>
	<path class="st1" d="M8.9,14c-0.7-0.2-1.5,0.3-1.7,1c-0.2,0.7,0.3,1.5,1,1.7c0.7,0.2,1.5-0.3,1.7-1C10.1,14.9,9.6,14.1,8.9,14z"/>
</g>
</svg>
