<?xml version="1.0" encoding="utf-8"?>
<!-- Generator: Adobe Illustrator 23.0.1, SVG Export Plug-In . SVG Version: 6.00 Build 0)  -->
<svg version="1.1" id="Layer_1" xmlns="http://www.w3.org/2000/svg" xmlns:xlink="http://www.w3.org/1999/xlink" x="0px" y="0px"
	 viewBox="0 0 24 24" style="enable-background:new 0 0 24 24;" xml:space="preserve">
<style type="text/css">
	.st0{clip-path:url(#SVGID_2_);fill:#FFFFFF;}
</style>
<g>
	<defs>
		<path id="SVGID_1_" d="M13,13h-2V7h2V13z M13,17h-2v-2h2V17z M23,12l-2.4-2.8l0.3-3.7l-3.6-0.8l-1.9-3.2L12,3L8.6,1.5L6.7,4.7
			L3.1,5.5l0.3,3.7L1,12l2.4,2.8l-0.3,3.7l3.6,0.8l1.9,3.2L12,21l3.4,1.5l1.9-3.2l3.6-0.8l-0.3-3.7L23,12z"/>
	</defs>
	<clipPath id="SVGID_2_">
		<use xlink:href="#SVGID_1_"  style="overflow:visible;"/>
	</clipPath>
	<rect x="-4" y="-3.5" class="st0" width="32" height="31"/>
</g>
</svg>
