<?xml version="1.0" encoding="utf-8"?>
<!-- Generator: Adobe Illustrator 23.0.1, SVG Export Plug-In . SVG Version: 6.00 Build 0)  -->
<svg version="1.1" id="Layer_1" xmlns="http://www.w3.org/2000/svg" xmlns:xlink="http://www.w3.org/1999/xlink" x="0px" y="0px"
	 viewBox="0 0 24 24" style="enable-background:new 0 0 24 24;" xml:space="preserve">
<style type="text/css">
	.st0{clip-path:url(#SVGID_2_);}
	.st1{clip-path:url(#SVGID_4_);fill:#FFFFFF;}
</style>
<g>
	<defs>
		<path id="SVGID_1_" d="M11.9,15.5c-1.6,0-2.9-1.3-2.9-3s1.3-3,2.9-3c1.6,0,2.9,1.3,2.9,3S13.5,15.5,11.9,15.5z M18.2,12
			c0-0.3,0-0.6-0.1-0.8l1.7-1.4C20,9.6,20,9.4,19.9,9.2l-1.6-2.9C18.2,6.1,18,6,17.8,6.1l-2,0.9c-0.4-0.3-0.9-0.6-1.4-0.8L14,3.9
			c0-0.2-0.2-0.4-0.4-0.4h-3.3c-0.2,0-0.4,0.2-0.4,0.4L9.6,6.1c-0.5,0.2-1,0.5-1.4,0.8l-2-0.9C6,6,5.8,6.1,5.7,6.3L4.1,9.2
			C4,9.4,4,9.6,4.2,9.8l1.7,1.4c0,0.3-0.1,0.6-0.1,0.8s0,0.6,0.1,0.8l-1.7,1.4C4,14.4,4,14.6,4.1,14.8l1.6,2.9
			C5.8,17.9,6,18,6.2,17.9l2-0.9c0.4,0.3,0.9,0.6,1.4,0.8l0.3,2.3c0,0.2,0.2,0.4,0.4,0.4h3.3c0.2,0,0.4-0.2,0.4-0.4l0.3-2.3
			c0.5-0.2,1-0.5,1.4-0.8l2,0.9c0.2,0.1,0.4,0,0.5-0.2l1.6-2.9c0.1-0.2,0.1-0.4-0.1-0.5l-1.7-1.4C18.1,12.6,18.2,12.3,18.2,12z"/>
	</defs>
	<clipPath id="SVGID_2_">
		<use xlink:href="#SVGID_1_"  style="overflow:visible;"/>
	</clipPath>
	<g class="st0">
		<defs>
			<rect id="SVGID_3_" x="-291" y="-300.5" width="1500" height="800"/>
		</defs>
		<clipPath id="SVGID_4_">
			<use xlink:href="#SVGID_3_"  style="overflow:visible;"/>
		</clipPath>
		<rect x="-1" y="-1.5" class="st1" width="26" height="27"/>
	</g>
</g>
</svg>
