<?xml version="1.0" encoding="utf-8"?>
<!-- Generator: Adobe Illustrator 23.0.1, SVG Export Plug-In . SVG Version: 6.00 Build 0)  -->
<svg version="1.1" id="Layer_1" xmlns="http://www.w3.org/2000/svg" xmlns:xlink="http://www.w3.org/1999/xlink" x="0px" y="0px"
	 viewBox="0 0 24 24" style="enable-background:new 0 0 24 24;" xml:space="preserve">
<style type="text/css">
	.st0{clip-path:url(#SVGID_2_);}
	.st1{clip-path:url(#SVGID_4_);fill:#FFFFFF;}
</style>
<g>
	<defs>
		<path id="SVGID_1_" d="M10.1,21.3c0-0.5,0.2-1,0.5-1.4c0.4-0.4,0.8-0.5,1.4-0.5s1,0.2,1.4,0.5c0.4,0.4,0.5,0.8,0.5,1.4
			s-0.2,1-0.5,1.4s-0.8,0.5-1.4,0.5s-1-0.2-1.4-0.5C10.3,22.3,10.1,21.8,10.1,21.3z M10.1,12c0-0.5,0.2-1,0.5-1.4
			c0.4-0.4,0.8-0.5,1.4-0.5s1,0.2,1.4,0.5s0.5,0.8,0.5,1.4s-0.2,1-0.5,1.4c-0.4,0.4-0.8,0.5-1.4,0.5s-1-0.2-1.4-0.5
			C10.3,13,10.1,12.5,10.1,12z M10.1,2.7c0-0.5,0.2-1,0.5-1.4C11,1,11.5,0.8,12,0.8s1,0.2,1.4,0.5s0.5,0.8,0.5,1.4s-0.2,1-0.5,1.4
			C13,4.4,12.5,4.6,12,4.6S11,4.4,10.6,4C10.3,3.7,10.1,3.2,10.1,2.7z"/>
	</defs>
	<clipPath id="SVGID_2_">
		<use xlink:href="#SVGID_1_"  style="overflow:visible;"/>
	</clipPath>
	<g class="st0">
		<defs>
			<rect id="SVGID_3_" x="-1071.9" y="-505.2" width="5003" height="1184"/>
		</defs>
		<clipPath id="SVGID_4_">
			<use xlink:href="#SVGID_3_"  style="overflow:visible;"/>
		</clipPath>
		<rect x="5.1" y="-4.2" class="st1" width="13.8" height="32.4"/>
	</g>
</g>
</svg>
