<?xml version="1.0" encoding="utf-8"?>
<!-- Generator: Adobe Illustrator 23.0.1, SVG Export Plug-In . SVG Version: 6.00 Build 0)  -->
<svg version="1.1" id="Layer_1" xmlns="http://www.w3.org/2000/svg" xmlns:xlink="http://www.w3.org/1999/xlink" x="0px" y="0px"
	 viewBox="0 0 24 24" style="enable-background:new 0 0 24 24;" xml:space="preserve">
<style type="text/css">
	.st0{clip-path:url(#SVGID_2_);fill:#4A4A4A;}
	.st1{clip-path:url(#SVGID_4_);fill:#4A4A4A;}
</style>
<g>
	<g>
		<defs>
			<path id="SVGID_1_" d="M9.5,8.8l-0.7,3.4H5.9l-1.2,1.2V5.2H14v4.3 M15.2,9.5 M15.2,9.5V5.2C15.2,4.6,14.7,4,14,4H4.7
				C4.1,4,3.6,4.6,3.6,5.2v10.5l2.3-2.3H10V9.3"/>
		</defs>
		<clipPath id="SVGID_2_">
			<use xlink:href="#SVGID_1_"  style="overflow:visible;"/>
		</clipPath>
		<rect x="1.6" y="1.9" class="st0" width="15.6" height="15.6"/>
	</g>
	<g>
		<defs>
			<path id="SVGID_3_" d="M10,9.5h9.3v8.1l-1.2-1.2H10V9.5z M8.8,9.5v7c0,0.6,0.5,1.2,1.2,1.2h8.1l2.3,2.3V9.5
				c0-0.6-0.5-1.2-1.2-1.2H10C9.3,8.3,8.8,8.9,8.8,9.5z"/>
		</defs>
		<clipPath id="SVGID_4_">
			<use xlink:href="#SVGID_3_"  style="overflow:visible;"/>
		</clipPath>
		<rect x="6.8" y="6.3" class="st1" width="15.6" height="15.6"/>
	</g>
</g>
</svg>
