<?xml version="1.0" encoding="utf-8"?>
<!-- Generator: Adobe Illustrator 23.0.1, SVG Export Plug-In . SVG Version: 6.00 Build 0)  -->
<svg version="1.1" id="Layer_1" xmlns="http://www.w3.org/2000/svg" xmlns:xlink="http://www.w3.org/1999/xlink" x="0px" y="0px"
	 viewBox="0 0 24 24" style="enable-background:new 0 0 24 24;" xml:space="preserve">
<style type="text/css">
	.st0{clip-path:url(#SVGID_2_);}
	.st1{clip-path:url(#SVGID_4_);fill:#D0021B;}
	.st2{clip-path:url(#SVGID_6_);}
	.st3{clip-path:url(#SVGID_8_);fill:#D0021B;}
	.st4{clip-path:url(#SVGID_10_);}
	.st5{clip-path:url(#SVGID_12_);fill:#FFFFFF;}
</style>
<g>
	<defs>
		<path id="SVGID_1_" d="M17.4,8.4H6.6V6.6h10.8V8.4z M13.8,13.8H6.6V12h7.2V13.8z M6.6,9.3h10.8v1.8H6.6V9.3z M19.2,3H4.8
			C3.8,3,3,3.8,3,4.8L3,21l3.6-3.6h12.6c1,0,1.8-0.8,1.8-1.8V4.8C21,3.8,20.2,3,19.2,3z"/>
	</defs>
	<clipPath id="SVGID_2_">
		<use xlink:href="#SVGID_1_"  style="overflow:visible;"/>
	</clipPath>
	<g class="st0">
		<defs>
			<rect id="SVGID_3_" x="-140" y="-412" width="320" height="460"/>
		</defs>
		<clipPath id="SVGID_4_">
			<use xlink:href="#SVGID_3_"  style="overflow:visible;"/>
		</clipPath>
		<rect x="-2" y="-2" class="st1" width="28" height="28"/>
	</g>
</g>
<g>
	<defs>
		<rect id="SVGID_5_" x="5.2" y="5.2" width="13.5" height="10.1"/>
	</defs>
	<clipPath id="SVGID_6_">
		<use xlink:href="#SVGID_5_"  style="overflow:visible;"/>
	</clipPath>
	<g class="st2">
		<defs>
			<rect id="SVGID_7_" x="-140" y="-412" width="320" height="460"/>
		</defs>
		<clipPath id="SVGID_8_">
			<use xlink:href="#SVGID_7_"  style="overflow:visible;"/>
		</clipPath>
		<rect x="0.2" y="0.2" class="st3" width="23.5" height="20.1"/>
	</g>
</g>
<g>
	<defs>
		<polygon id="SVGID_9_" points="13.9,10 17,13.1 15.1,15 12,11.9 8.9,15 7,13.1 10.1,10 7,6.9 8.9,5 12,8.1 15.1,5 17,6.9 		"/>
	</defs>
	<clipPath id="SVGID_10_">
		<use xlink:href="#SVGID_9_"  style="overflow:visible;"/>
	</clipPath>
	<g class="st4">
		<defs>
			<rect id="SVGID_11_" x="-140" y="-412" width="320" height="460"/>
		</defs>
		<clipPath id="SVGID_12_">
			<use xlink:href="#SVGID_11_"  style="overflow:visible;"/>
		</clipPath>
		<rect x="2" class="st5" width="20" height="20"/>
	</g>
</g>
</svg>
